<svg xmlns="http://www.w3.org/2000/svg"><symbol id="logo-symbol" viewBox="0 0 838 229" fill="none"><path fill="#000" d="m87.6 47.3 37.7 85.6h-10l-9.4-22H61l-9.4 22H41.4L79 47.3h8.7Zm14.7 55.3-19-43.8-18.7 43.8h37.7Zm68-30.9-.2 9c-1.7-.6-4-1-6.3-1-6 0-10.1 1.8-13.2 5.6a22 22 0 0 0-4.2 13.1V133h-9.6V89.5c0-6.3-.5-12-1-17h9.2l1 11.2c3-8.2 10.3-12.7 19-12.7 1.8 0 3.7.2 5.3.7Zm48 .7v7.7H201v33c0 9 4 12.3 10.6 12.3 2.3 0 4.4-.5 6.5-1.2v8.2c-2.6 1-5.4 1.4-8.4 1.4-11.5 0-18.3-6.8-18.3-19.2V80h-11.7v-7.7h11.7V57l9.6-3.2v18.7h17.4Zm99.8 4.6 9 8.8-17.8 17.8 17.6 17.8-8.8 8.9-17.8-17.7-17.7 17.6-8.7-9 17.4-17.6L273.7 86l9-9 17.6 17.5L318 77Zm63.6 46 3.5-7.5c8.7 7 17 9.9 28.4 9.9 13.8 0 21.8-5.7 21.6-15.3-.3-9.1-7.5-11.2-21.6-14.5-6.6-1.6-12-3-16.2-4.7-8.4-3.5-14.3-9.6-14.3-19.7 0-14.7 12.4-24.8 31.2-24.8 12 0 22.5 3.7 29.5 10.8l-4 7.7c-8-6.8-15.9-10-25.5-10-13.4 0-21.3 6-21.3 15.9 0 8.6 6.5 12.2 20.1 15.4 7.3 1.7 13 3.5 17.1 5C439 94 445 99.8 445 109.7c0 14.5-12.2 24.1-31.4 24.1a44.9 44.9 0 0 1-31.9-10.8Zm75-20.4C456.7 84 468.2 71 486 71a31 31 0 0 1 21.3 8l-3.2 7.2c-6.1-4.9-11.8-7-17.6-7-12.4 0-19.7 8.7-19.7 23.4 0 14.6 7.3 23 19.7 23 5.8 0 11.5-2.1 17.6-6.8l3.2 7c-5.1 5-13.6 8-21.8 8-17.5 0-28.8-12.4-28.8-31.2ZM533.4 58h-11.8v-11h11.8v11Zm-1.2 14.5V133h-9.6V72.4h9.6Zm69.4 28.1v2h-44.1c0 15.1 7 23.1 20.4 23.1 7 0 13.6-2.3 19.4-7l3.3 7c-5.4 5-14.3 8.2-22.7 8.2-19 0-30.2-12-30.2-31.4C547.7 84 559.4 71 576 71c16 0 25.6 11.3 25.6 29.5Zm-43.9-4.4H593c-1-11.5-6.8-17.4-16.9-17.4-10 0-16.4 6.4-18.3 17.4Zm110.9-1.2v38H659V95.4c0-11-4.5-16.2-14-16.2-11 0-18.6 7.5-18.6 19.2V133h-9.6V89.5c0-6.3-.5-12-1-17h9.2l1 11A22 22 0 0 1 646.7 71c14.5 0 21.8 8 21.8 24Zm14.3 7.7c0-18.7 11.5-31.6 29.3-31.6a31 31 0 0 1 21.3 8l-3.3 7.2c-6-4.9-11.7-7-17.5-7-12.5 0-19.7 8.7-19.7 23.4 0 14.6 7.2 23 19.7 23 5.8 0 11.4-2.1 17.5-6.8l3.3 7c-5.1 5-13.6 8-21.8 8-17.6 0-28.8-12.4-28.8-31.2Zm116.2-2v1.8h-44c0 15.2 7 23.2 20.4 23.2 7 0 13.6-2.3 19.4-7l3.3 7c-5.4 5-14.3 8.2-22.7 8.2-19 0-30.3-12-30.3-31.4C745.2 84 757 71 773.6 71c16 0 25.5 11.3 25.5 29.5ZM755.3 96h35.2c-1-11.5-6.8-17.4-17-17.4-10 0-16.3 6.4-18.2 17.4ZM513.2 174.4v25.7h-3v-25.7h3Zm8.6 0 15.5 20.7v-20.7h2.8v25.7h-2.3l-15.5-20.6V200h-2.8v-25.7h2.3Zm33.8 2.5v23.2h-3v-23.2h-9v-2.5h21v2.5h-9Zm28.7 20.7v2.5h-16.2v-25.7h16.2v2.5h-13.2v8.9h12.5v2.5h-12.5v9.3h13.2Zm23.2-6.2 3.2 8.7h-3l-3.2-8.5c-.8-2.2-2-2.7-4.5-2.7h-6.4V200h-3v-25.7h10.2c5.5 0 8.6 2.5 8.6 7.2 0 3.3-1.8 5.7-5.1 6.7 1.5.2 2.5 1.1 3.2 3.1Zm-14-14.5v9.5h7c4 0 6-1.6 6-4.8 0-3.2-1.9-4.7-6-4.7h-7Zm25.8-2.5 15.5 20.7v-20.7h2.8v25.7h-2.2l-15.6-20.6V200h-2.7v-25.7h2.2Zm36 0 11.3 25.7h-3l-2.9-6.6h-13.4l-2.8 6.6h-3.1l11.2-25.7h2.6Zm4.4 16.6-5.7-13.2-5.6 13.2h11.3Zm19.9-14v23h-3v-23h-9v-2.6h21v2.5h-9Zm15.4-2.6v25.7h-3v-25.7h3Zm5.5 12.9c0-8.1 4.4-13.2 11.6-13.2 7.3 0 11.7 5 11.7 13 0 8.2-4.6 13.2-11.7 13.2s-11.6-5-11.6-13Zm20.2-.1c0-6.8-3.2-10.6-8.6-10.6-5.5 0-8.6 3.8-8.6 10.6 0 6.7 3.1 10.6 8.6 10.6 5.4 0 8.6-3.9 8.6-10.6Zm10.8-12.8 15.4 20.7v-20.7h2.9v25.7h-2.3L732 179.5V200h-2.8v-25.7h2.3Zm35.9 0 11.3 25.7h-3l-2.8-6.6h-13.4l-2.9 6.6h-3l11.2-25.7h2.6Zm4.4 16.6-5.7-13.2-5.6 13.2h11.3Zm26.5 6.5v2.6h-15.8v-25.7h3v23.1h12.8Z"/></symbol></svg>